<?xml version="1.0" encoding="utf-8"?>
<svg version="1.1" id="RGB_additive" xmlns="http://www.w3.org/2000/svg" xmlns:xlink="http://www.w3.org/1999/xlink" x="0px" y="0px" width="400px" height="400px" viewBox="0 0 400 400" style="enable-background:new 0 0 400 400;" xml:space="preserve">
  <style type="text/css">
    .cls-1 {fill: #ff0000;}
    .cls-2 {fill: #0000ff;}
    .cls-3 {fill: #00ff00;}
    .cls-4 {fill: #ffff00;}
    .cls-5 {fill: #ff00ff;}
    .cls-6 {fill: #00ffff;}
    .cls-7 {fill: #ffffff;}
  </style>
  <g id="r">
    <path class="cls-1" d="M80,150.72a120,120,0,0,1,240,0Z"/>
  </g>
  <g id="b">
    <path class="cls-2" d="M320,150.72A120,120,0,1,1,200,358.56Z"/>
  </g>
  <g id="g">
    <path class="cls-3" d="M200,358.56A120,120,0,1,1,80,150.72Z"/>
  </g>
  <g id="y">
    <path class="cls-4" d="M200,150.72a120,120,0,0,0-120,0,120,120,0,0,0,60,103.92Z"/>
  </g>
  <g id="m">
    <path class="cls-5" d="M260,254.64a120,120,0,0,0,60-103.92,120,120,0,0,0-120,0Z"/>
  </g>
  <g id="c">
    <path class="cls-6" d="M140,254.64a120,120,0,0,0,60,103.92,120,120,0,0,0,60-103.92Z"/>
  </g>
  <g id="w">
    <path class="cls-7" d="M200,150.72a120,120,0,0,1,60,103.92,120,120,0,0,1-120,0A120,120,0,0,1,200,150.72Z"/>
  </g>
  <g id="blue">
    <path class="cls-7" d="M295.16,263.63a75.9,75.9,0,0,1,14.31-1.26c7.83,0,12.87,1.35,16.65,4.41a12.72,12.72,0,0,1,5,10.71c0,5.85-3.87,11-10.26,13.32V291c5.76,1.44,12.51,6.21,12.51,15.21a16.35,16.35,0,0,1-5.13,12.15c-4.23,3.87-11.07,5.67-21,5.67a91.45,91.45,0,0,1-12.15-.72ZM303,288.47h7.11c8.28,0,13.14-4.32,13.14-10.17,0-7.11-5.4-9.9-13.32-9.9a33.62,33.62,0,0,0-6.93.54Zm0,29.07a41.77,41.77,0,0,0,6.57.36c8.1,0,15.57-3,15.57-11.79,0-8.28-7.11-11.7-15.66-11.7H303Z"/>
  </g>
  <g id="green">
    <path d="M109.17,320.78a56.52,56.52,0,0,1-18.63,3.33c-9.18,0-16.74-2.34-22.68-8-5.22-5-8.46-13.14-8.46-22.59.09-18.09,12.51-31.32,32.85-31.32,7,0,12.51,1.53,15.12,2.79l-1.89,6.39a31.45,31.45,0,0,0-13.41-2.61c-14.76,0-24.39,9.18-24.39,24.39,0,15.39,9.27,24.48,23.4,24.48,5.13,0,8.64-.72,10.44-1.62V297.92H89.19v-6.3h20Z"/>
  </g>
  <g id="red">
    <path d="M182.63,57.63a81.51,81.51,0,0,1,15-1.26c8.37,0,13.77,1.53,17.55,4.95A15.11,15.11,0,0,1,220,72.84c0,8-5,13.32-11.43,15.48v.27c4.68,1.62,7.47,5.94,8.91,12.24,2,8.46,3.42,14.31,4.68,16.65H214c-1-1.71-2.34-6.93-4-14.49-1.8-8.37-5-11.52-12.15-11.79h-7.38v26.28h-7.83Zm7.83,27.63h8c8.37,0,13.68-4.59,13.68-11.52,0-7.83-5.67-11.25-14-11.34a32.25,32.25,0,0,0-7.74.72Z"/>
  </g>
</svg>
